<svg width="155" height="55" viewBox="0 0 155 55" fill="none" xmlns="http://www.w3.org/2000/svg">
<g clip-path="url(#clip0_0_8)">
<path d="M41.5921 9.2821H50.7416C50.9687 9.2821 51.1726 9.46627 51.2454 9.74253L60.9802 47.0513C61.0938 47.486 60.8375 47.9316 60.4764 47.9316H52.6752C52.4393 47.9316 52.2326 47.7327 52.1656 47.4454L50.762 41.2795C50.6979 40.9922 50.4883 40.7933 50.2524 40.7933H42.0347C41.7959 40.7933 41.5892 40.9922 41.5251 41.2832L40.1594 47.4418C40.0953 47.7291 39.8857 47.9316 39.6498 47.9316H31.8515C31.4904 47.9316 31.237 47.486 31.3477 47.0513L41.0912 9.74253C41.164 9.46996 41.365 9.2821 41.595 9.2821H41.5921ZM48.0713 32.3068C48.4237 32.3068 48.677 31.8832 48.5809 31.4523L47.3637 26.034C47.1453 24.9953 46.8774 23.5772 46.6444 22.2991C46.5163 21.5956 45.7213 21.6103 45.6107 22.3175C45.4068 23.592 45.1651 24.999 44.9263 26.034L43.7091 31.4523C43.613 31.8795 43.8664 32.3068 44.2187 32.3068H48.0713Z" fill="#17A550"/>
<path d="M37.3289 24.1555C36.9504 22.3432 36.4728 20.5273 35.8962 18.7225C38.4966 16.7593 41.4028 15.1312 44.5682 13.9452C38.9975 10.2544 32.9551 8.14387 26.8399 7.62451C26.537 13.4369 26.2284 19.2492 25.9226 25.0616C29.4549 25.3599 32.9551 26.4281 36.2573 28.2624L37.3289 24.1555Z" fill="#FFC728"/>
<path d="M54.2535 22.3838H56.1579V21.9086C56.1579 15.1939 60.8404 14.1662 63.9009 14.1662C65.2434 14.1662 66.117 14.3651 66.117 14.3651V20.4463C66.117 20.4463 65.5229 20.288 64.8677 20.288C63.8048 20.288 62.6808 20.6416 62.6808 21.986V22.3801H67.6458V21.905C67.6458 15.2307 72.9223 13.4148 76.3585 13.4148C79.387 13.4148 81.1982 14.5603 81.1982 14.5603L79.8878 20.5237C79.8878 20.5237 78.8249 19.7354 77.1709 19.7354C75.8285 19.7354 74.1745 20.4869 74.1745 21.986V22.3801H84.448V42.7196H77.9222V28.4613H74.1745V42.7196H67.6487V28.4613H62.6837V42.7196H56.1579V28.4613H54.2535V22.3801V22.3838Z" fill="#1D2F38"/>
<path d="M85.837 14.4867H92.3628V33.7212C92.3628 35.655 92.6424 36.248 93.7053 36.248C94.0169 36.248 94.3605 36.1707 94.3605 36.1707V42.7676C94.3605 42.7676 93.3937 42.926 92.2056 42.926C88.9907 42.926 85.837 41.6626 85.837 34.8299V14.4867Z" fill="#1D2F38"/>
<path d="M96.0786 22.3838H102.604V42.7233H96.0786V22.3838ZM96.1397 13.8126H102.54V19.8165H96.1397V13.8126Z" fill="#1D2F38"/>
<path d="M112.863 30.0489H112.989V29.6916C112.989 28.3877 112.24 27.8757 110.991 27.8757C108.868 27.8757 106.62 29.6143 106.62 29.6143L104.777 24.2808C104.777 24.2808 107.526 21.9124 112.051 21.9124C116.576 21.9124 119.514 24.7559 119.514 30.0084V42.727H113.551V41.5042C113.551 40.9517 113.612 40.3586 113.612 40.3586H113.551C113.551 40.3586 112.333 43.2022 109.148 43.2022C106.431 43.2022 103.746 41.029 103.746 36.8042C103.746 30.4835 110.365 30.0526 112.863 30.0526V30.0489ZM111.052 37.7913C112.269 37.7913 113.143 36.2517 113.143 34.8299V34.1595H112.738C111.302 34.1595 109.771 34.7526 109.771 36.2922C109.771 37.202 110.208 37.7913 111.052 37.7913Z" fill="#1D2F38"/>
<path d="M122.257 28.8224H120.26V22.7411H122.415V16.8956H128.783V22.7411H132.094V28.8224H128.783V33.6402C128.783 35.9718 130.251 36.248 131.189 36.248C131.876 36.248 132.313 36.1707 132.313 36.1707V42.7676C132.313 42.7676 131.314 42.926 129.878 42.926C126.882 42.926 122.26 41.821 122.26 34.8299V28.826L122.257 28.8224Z" fill="#1D2F38"/>
<path d="M142.24 21.9124C147.359 21.9124 149.921 26.1003 149.921 31.3897C149.921 32.2994 149.796 33.9164 149.796 33.9164H140.056C140.306 36.167 141.648 37.0768 143.396 37.0768C145.926 37.0768 147.735 35.2203 147.735 35.2203L149.889 40.4728C149.889 40.4728 147.423 43.1985 142.866 43.1985C136.433 43.1985 133.498 37.946 133.498 32.5352C133.498 26.6123 136.713 21.9124 142.24 21.9124ZM144.051 29.7727C144.019 28.1151 143.238 27.0875 142.208 27.0875C141.022 27.0875 140.335 28.1557 140.146 29.7727H144.048H144.051Z" fill="#1D2F38"/>
<path d="M4.73337 4.29158L4.32065 4.53169C3.75082 4.86321 3.50135 5.71626 3.76344 6.43704L20.3853 52.1484C20.6474 52.8692 21.3218 53.1847 21.8917 52.8532L22.3044 52.6131C22.8742 52.2816 23.1237 51.4285 22.8616 50.7078L6.2397 4.99639C5.97761 4.27561 5.3032 3.96006 4.73337 4.29158Z" fill="#768F9C"/>
<path d="M5.01288 7.91314C6.56906 7.47784 7.55161 5.52925 7.20747 3.56085C6.86333 1.59245 5.32281 0.349633 3.76663 0.784935C2.21045 1.22024 1.2279 3.16882 1.57204 5.13722C1.91618 7.10562 3.4567 8.34844 5.01288 7.91314Z" fill="#768F9C"/>
<path d="M33.0396 8.70374C31.1147 8.1586 28.1823 7.73501 26.8428 7.62451C26.54 13.4369 26.2313 19.2492 25.9255 25.0616C26.8457 25.1389 29.5655 25.6988 30.4799 25.8829C31.4321 19.3487 32.3174 14.4608 33.0425 8.70742L33.0396 8.70374Z" fill="#FEAD1C"/>
<path d="M27.8271 24.1997C22.0555 23.2715 16.1209 24.3581 10.6958 27.4853C8.65448 21.8203 6.61608 16.1589 4.57477 10.4939C11.9916 6.22123 20.0579 4.5453 27.9698 5.44035C28.9133 5.54717 29.5947 6.63745 29.4753 7.82349C28.9249 13.2822 28.3775 18.7373 27.8271 24.196V24.1997Z" fill="#FFC728"/>
</g>
<defs>
<clipPath id="clip0_0_8">
<rect width="155" height="55" fill="white"/>
</clipPath>
</defs>
</svg>
