<svg width="117" height="29" viewBox="0 0 117 29" fill="none" xmlns="http://www.w3.org/2000/svg">
<path d="M14.88 29L8.76 18.32H7.2V29H0.36V0.719999H12.04C14.28 0.719999 16.1733 1.10667 17.72 1.88C19.2667 2.65333 20.4267 3.72 21.2 5.08C21.9733 6.41333 22.36 7.94667 22.36 9.68C22.36 11.7333 21.7867 13.48 20.64 14.92C19.52 16.36 17.88 17.3467 15.72 17.88L22.44 29H14.88ZM7.2 13.64H11.44C12.8 13.64 13.8 13.3467 14.44 12.76C15.08 12.1467 15.4 11.2533 15.4 10.08C15.4 8.96 15.0667 8.08 14.4 7.44C13.76 6.8 12.7733 6.48 11.44 6.48H7.2V13.64ZM32.6297 6.16V12.08H42.1897V17.24H32.6297V23.52H43.3897V29H25.7897V0.719999H43.3897V6.16H32.6297ZM54.1141 23.76H63.2341V29H47.2741V0.719999H54.1141V23.76ZM83.8956 23.84H73.2956L71.5356 29H64.3356L74.6956 0.919999H82.5756L92.9356 29H85.6556L83.8956 23.84ZM82.1356 18.64L78.6156 8.24L75.0556 18.64H82.1356ZM102.434 19.08V29H95.5944V0.719999H106.674C110.034 0.719999 112.594 1.56 114.354 3.24C116.114 4.89333 116.994 7.13333 116.994 9.96C116.994 11.72 116.594 13.2933 115.794 14.68C115.021 16.04 113.861 17.12 112.314 17.92C110.768 18.6933 108.888 19.08 106.674 19.08H102.434ZM105.914 13.6C108.661 13.6 110.034 12.3867 110.034 9.96C110.034 7.48 108.661 6.24 105.914 6.24H102.434V13.6H105.914Z" fill="white"/>
</svg>
