<svg width="470" height="533" viewBox="0 0 470 533" fill="none" xmlns="http://www.w3.org/2000/svg">
<path d="M221.5 533C343.831 533 443 433.831 443 311.5C443 189.169 343.831 90 221.5 90C99.1689 90 0 189.169 0 311.5C0 433.831 99.1689 533 221.5 533Z" fill="url(#paint0_linear_1_23)"/>
<path fill-rule="evenodd" clip-rule="evenodd" d="M188.196 269L130 287.505L170.677 414.509C171.782 417.957 174.219 420.826 177.451 422.484C180.682 424.143 184.444 424.454 187.907 423.35L200.447 419.443C206.909 417.409 210.899 410.971 209.826 404.31L188.196 269Z" fill="#C773FF"/>
<g style="mix-blend-mode:soft-light">
<path fill-rule="evenodd" clip-rule="evenodd" d="M188.196 269L130 287.505L170.677 414.509C171.782 417.957 174.219 420.826 177.451 422.484C180.682 424.143 184.444 424.454 187.907 423.35L200.447 419.443C206.909 417.409 210.899 410.971 209.826 404.31L188.196 269Z" fill="url(#paint1_linear_1_23)"/>
</g>
<path fill-rule="evenodd" clip-rule="evenodd" d="M388.787 46.3589L448.139 233.139C454.173 252.121 444.885 270.049 429.605 268.851C318.15 260.031 209.022 271.371 105.413 302.518C97.5462 304.872 88.5055 298.387 85.1486 287.77L61.2595 212.422C57.9027 201.847 61.4861 191.272 69.2706 188.628C171.747 153.908 267.303 99.8751 353.118 27.9763C364.857 18.1447 382.774 27.398 388.787 46.3589Z" fill="#AA61E9"/>
<g style="mix-blend-mode:soft-light">
<path fill-rule="evenodd" clip-rule="evenodd" d="M388.656 47.2745L448.143 233.364C454.17 252.275 444.882 270.137 429.566 268.943C398.711 266.496 367.751 265.603 336.806 266.268C330.178 231.068 319.905 196.649 306.154 163.562C295.695 138.489 283.272 114.276 269 91.1473C298.116 72.0129 326.123 51.2505 352.885 28.9599C354.606 27.5168 356.599 26.4322 358.747 25.7702C369.872 22.2102 383.516 31.2646 388.656 47.2745Z" fill="url(#paint2_linear_1_23)"/>
</g>
<path fill-rule="evenodd" clip-rule="evenodd" d="M139.419 318.574C132.525 320.77 125.156 316.962 122.96 310.067L78.9463 171.88C76.7508 164.987 80.5585 157.619 87.4515 155.422L149.932 135.515C156.826 133.318 164.195 137.127 166.391 144.021L210.405 282.209C212.6 289.102 208.792 296.47 201.899 298.666L139.419 318.574Z" fill="#C97CFF"/>
<path fill-rule="evenodd" clip-rule="evenodd" d="M444.908 281.785C440.556 283.172 435.904 280.767 434.517 276.415L352.545 19.0502C351.159 14.6985 353.563 10.0472 357.914 8.66069L374.642 3.33088C378.994 1.94419 383.646 4.34846 385.033 8.70077L467.005 266.066C468.391 270.417 465.987 275.069 461.636 276.455L444.908 281.785Z" fill="#C485FF"/>
<g style="mix-blend-mode:soft-light" opacity="0.4">
<path fill-rule="evenodd" clip-rule="evenodd" d="M139.419 318.574C132.525 320.77 125.156 316.962 122.96 310.067L78.9463 171.88C76.7508 164.987 80.5585 157.619 87.4515 155.422L149.932 135.515C156.826 133.318 164.195 137.127 166.391 144.021L210.405 282.209C212.6 289.102 208.792 296.47 201.899 298.666L139.419 318.574Z" fill="black"/>
</g>
<path fill-rule="evenodd" clip-rule="evenodd" d="M164.856 198.826L112.141 215.746C109.894 216.518 107.429 215.48 106.395 213.326C105.867 212.139 105.868 210.782 106.398 209.596C106.927 208.41 107.934 207.509 109.166 207.121L161.819 190.263C164.1 189.468 166.609 190.528 167.646 192.724C168.138 193.902 168.116 195.235 167.585 196.395C167.054 197.556 166.064 198.438 164.856 198.826Z" fill="white"/>
<path fill-rule="evenodd" clip-rule="evenodd" d="M172.841 222.857L120.149 239.745C117.897 240.521 115.425 239.474 114.406 237.312C113.87 236.132 113.865 234.779 114.391 233.595C114.916 232.411 115.923 231.512 117.154 231.126L169.806 214.259C172.091 213.47 174.601 214.536 175.631 216.733C176.137 217.912 176.122 219.252 175.59 220.419C175.059 221.586 174.06 222.472 172.841 222.857Z" fill="white"/>
<path fill-rule="evenodd" clip-rule="evenodd" d="M179.86 246.848L126.715 263.841C124.373 264.478 121.947 263.15 121.213 260.831C120.479 258.511 121.698 256.024 123.977 255.189L177.102 238.218C179.478 237.454 182.022 238.766 182.783 241.149C183.545 243.533 182.236 246.084 179.86 246.848Z" fill="white"/>
<g style="mix-blend-mode:soft-light" opacity="0.4">
<path fill-rule="evenodd" clip-rule="evenodd" d="M444.908 281.785C440.556 283.172 435.904 280.767 434.517 276.415L352.545 19.0502C351.159 14.6985 353.563 10.0472 357.914 8.66069L374.642 3.33088C378.994 1.94419 383.646 4.34846 385.033 8.70077L467.005 266.066C468.391 270.417 465.987 275.069 461.636 276.455L444.908 281.785Z" fill="black"/>
</g>
<defs>
<linearGradient id="paint0_linear_1_23" x1="223.715" y1="-135.93" x2="-223.715" y2="315.93" gradientUnits="userSpaceOnUse">
<stop stop-color="#3023AE"/>
<stop offset="1" stop-color="#C86DD7"/>
</linearGradient>
<linearGradient id="paint1_linear_1_23" x1="240.122" y1="374.914" x2="144.788" y2="295.573" gradientUnits="userSpaceOnUse">
<stop stop-opacity="0.8"/>
<stop offset="1" stop-color="white" stop-opacity="0.01"/>
</linearGradient>
<linearGradient id="paint2_linear_1_23" x1="1459.13" y1="-649.567" x2="1459.13" y2="-904.037" gradientUnits="userSpaceOnUse">
<stop stop-opacity="0.8"/>
<stop offset="1" stop-color="white" stop-opacity="0.01"/>
</linearGradient>
</defs>
</svg>
