<svg width="133" height="33" viewBox="0 0 133 33" fill="none" xmlns="http://www.w3.org/2000/svg">
<path d="M0.0012207 6.80729C0.0012207 6.80729 3.30542 20.3722 3.83275 22.574C4.44825 25.1439 5.55727 26.0897 8.75476 25.4518L10.818 17.0417C11.3409 14.9527 11.6917 13.4633 12.0278 11.3383H12.0869C12.3231 13.4842 12.6594 14.9589 13.0898 17.049C13.0898 17.049 13.9296 20.867 14.3597 22.8723C14.791 24.877 15.9911 26.1404 19.1231 25.4526L24.0392 6.80872H20.07L18.3917 14.8693C17.9404 17.2157 17.5309 19.049 17.2153 21.1955H17.1593C16.8723 19.0704 16.5074 17.3097 16.0487 15.0237L14.3011 6.80872H10.1656L8.29627 14.8167C7.76669 17.2501 7.27137 19.2151 6.95639 21.2888H6.89935C6.57678 19.3359 6.14715 16.8663 5.68191 14.5107C5.68191 14.5107 4.57133 8.78301 4.18167 6.80872L0.00160717 6.80925L0.0012207 6.80729ZM37.8393 6.80729V25.4511H41.6183V21.4922V6.8064H37.8393V6.80729ZM91.0629 6.80729V20.5612C91.0629 22.4575 91.4192 23.7861 92.1812 24.5977C92.8471 25.3076 93.9437 25.7673 95.2578 25.7673C96.3751 25.7673 97.4744 25.555 97.9925 25.3616L97.9438 22.4029C97.5583 22.498 97.1148 22.574 96.5082 22.574C95.2209 22.574 94.7892 21.748 94.7892 20.0454V14.7832H98.0804V11.2161H94.7892V6.80734H91.0628L91.0629 6.80729ZM29.394 11.1293C27.0455 11.1293 25.1812 11.79 24.165 12.3783L24.9086 14.9296C25.8387 14.3422 27.3195 13.8559 28.7217 13.8559C31.0431 13.85 31.4227 15.171 31.4227 16.0183V16.2187C26.3642 16.2111 23.169 17.9647 23.169 21.5394C23.169 23.7219 24.7956 25.7672 27.6239 25.7672C29.3649 25.7672 30.821 25.0715 31.6937 23.9569H31.7793C31.7793 23.9569 32.3572 26.3776 35.5408 25.4519C35.3736 24.4444 35.3193 23.3702 35.3193 22.0764V17.0958C35.3193 13.9214 33.9664 11.1294 29.394 11.1294L29.394 11.1293ZM51.9996 11.1293C49.6348 11.1293 48.5722 12.33 47.9278 13.3486H47.8718V11.4455H44.2654V25.452H48.0645V17.2378C48.0645 16.8527 48.1084 16.4455 48.2426 16.0912C48.5574 15.2642 49.3254 14.2968 50.5516 14.2968C52.0845 14.2968 52.8018 15.5952 52.8018 17.4691V25.4519H56.5969V17.1383C56.5969 16.7707 56.6472 16.3279 56.7551 16.0029C57.0671 15.0621 57.8951 14.2967 59.0349 14.2967C60.589 14.2967 61.3348 15.5725 61.3348 17.7774V25.4519H65.1325V17.2025C65.1325 12.8519 62.9275 11.1294 60.4385 11.1294C59.3361 11.1294 58.4661 11.4063 57.6794 11.8902C57.0182 12.2967 56.4263 12.8742 55.9089 13.6347H55.8529C55.251 12.1252 53.8387 11.1294 51.9989 11.1294L51.9996 11.1293ZM72.8616 11.1293C70.5136 11.1293 68.6497 11.79 67.6326 12.3783L68.3773 14.9296C69.3064 14.3422 70.7882 13.8559 72.1896 13.8559C74.5095 13.85 74.8899 15.171 74.8899 16.0183V16.2187C69.8322 16.2111 66.6366 17.9647 66.6366 21.5394C66.6366 23.7219 68.264 25.7672 71.0938 25.7672C72.8335 25.7672 74.2901 25.0715 75.1611 23.9569H75.247C75.247 23.9569 75.8248 26.3776 79.0089 25.4519C78.8414 24.4444 78.7877 23.3702 78.7877 22.0764V17.0958C78.7877 13.9214 77.4345 11.1294 72.8616 11.1294L72.8616 11.1293ZM88.6384 11.1293C87.1836 11.1293 85.5285 12.0701 84.8337 14.0869H84.7276V11.4453H81.3077V25.4518H85.2063V18.2796C85.2063 17.8927 85.2298 17.5553 85.2909 17.246C85.5792 15.7436 86.7262 14.7832 88.3724 14.7832C88.8244 14.7832 89.1478 14.8322 89.4977 14.8828V11.216C89.2043 11.1566 89.0036 11.1292 88.6385 11.1292L88.6384 11.1293ZM31.5447 18.7007V20.448C31.5447 20.7065 31.5222 20.9732 31.4508 21.2064C31.1583 22.1768 30.1548 22.9969 28.9004 22.9969C27.8546 22.9969 27.0239 22.4022 27.0239 21.1443C27.0239 19.2201 29.138 18.6882 31.5448 18.7007H31.5447ZM75.0123 18.7007V20.448C75.0123 20.7065 74.9894 20.9732 74.9184 21.2064C74.6259 22.1768 73.6228 22.9969 72.3684 22.9969C71.3224 22.9969 70.4915 22.4022 70.4915 21.1443C70.4915 19.2201 72.6057 18.6882 75.0124 18.7007H75.0123Z" fill="#A1A89D"/>
<path d="M118.512 0.0651855C117.292 0.0651855 116.322 0.747754 116.322 1.5787L117.063 9.98403C117.145 10.4904 117.764 10.8811 118.512 10.8811C119.262 10.8801 119.879 10.4898 119.963 9.98403L120.707 1.5787C120.707 0.747825 119.735 0.0652569 118.513 0.0652569L118.512 0.0651855ZM106.437 6.80754C105.804 6.82259 105.085 7.30302 104.627 8.09802C104.015 9.15663 104.123 10.3396 104.839 10.7547L112.475 14.317C112.952 14.4948 113.599 14.1554 113.975 13.5075C113.975 13.5074 113.975 13.5072 113.975 13.5071C114.351 12.856 114.322 12.1239 113.926 11.7991L107.03 6.95332C106.85 6.84939 106.649 6.80263 106.438 6.80764L106.437 6.80754ZM130.586 6.80754C130.375 6.80252 130.174 6.84929 129.995 6.95321L123.098 11.799C122.703 12.1238 122.674 12.8559 123.049 13.507L123.05 13.5074C123.426 14.1553 124.072 14.4947 124.549 14.3169L132.187 10.7547C132.907 10.3397 133.01 9.15676 132.402 8.09809C131.942 7.30308 131.221 6.82267 130.588 6.80761L130.586 6.80754ZM112.76 17.8972C112.661 17.8958 112.565 17.9111 112.476 17.9449L104.84 21.503C104.124 21.9198 104.016 23.1033 104.628 24.163C105.238 25.2196 106.314 25.7218 107.03 25.3075L113.927 20.4654C114.323 20.1367 114.353 19.4048 113.976 18.7543L113.979 18.7558C113.674 18.2259 113.188 17.9029 112.76 17.8971L112.76 17.8972ZM124.267 17.8972C123.839 17.903 123.354 18.226 123.048 18.7559L123.051 18.7544C122.676 19.4049 122.705 20.1368 123.1 20.4656L129.996 25.3076C130.711 25.722 131.788 25.2197 132.401 24.1632C133.009 23.1034 132.906 21.9199 132.187 21.5031L124.551 17.945C124.461 17.9112 124.365 17.8959 124.267 17.8973L124.267 17.8972ZM118.511 21.3807C117.763 21.3816 117.145 21.7705 117.064 22.2756L116.323 30.6806C116.323 31.5129 117.293 32.1941 118.513 32.1941C119.735 32.1941 120.706 31.5129 120.706 30.6806L119.964 22.2756C119.88 21.7705 119.263 21.3816 118.513 21.3807H118.51H118.511Z" fill="#A1A89D"/>
</svg>
