<svg width="28" height="38" viewBox="0 0 28 38"  xmlns="http://www.w3.org/2000/svg">
<path d="M8.17833 16.1612H7.077L6.47617 20.3539H7.45383C8.1025 20.3539 8.5855 20.1876 8.90283 19.8567C9.22017 19.5242 9.43367 18.9716 9.5445 18.1958C9.65183 17.4516 9.60283 16.9259 9.39983 16.6204C9.19567 16.3148 8.78967 16.1612 8.17833 16.1612ZM14 9.0061C6.2685 9.0061 0 13.4806 0 19.0001C0 24.5196 6.2685 28.9957 14 28.9957C21.7315 28.9957 28 24.5196 28 19.0001C28 13.4806 21.7315 9.0061 14 9.0061ZM10.1967 20.8035C9.89217 21.1994 9.52583 21.497 9.12683 21.6759C8.73483 21.8469 8.23433 21.9356 7.62767 21.9356H6.24983L5.86833 24.5972H4.26067L5.69567 14.581H8.78733C9.71717 14.581 10.395 14.9119 10.822 15.5754C11.249 16.2372 11.3773 17.1619 11.207 18.3494C11.1418 18.8192 11.0216 19.272 10.8512 19.6904C10.6843 20.0942 10.4662 20.4663 10.1967 20.8035ZM14.8913 21.9356L15.5248 17.5039C15.5983 17.0004 15.5703 16.6552 15.4455 16.4731C15.3207 16.2894 15.0535 16.1976 14.644 16.1976H13.37L12.5487 21.9372H10.9527L12.3877 11.9194H13.9825L13.601 14.5826H15.022C15.9168 14.5826 16.5328 14.7948 16.8723 15.2175C17.2118 15.6403 17.3133 16.3259 17.1792 17.2743L16.5118 21.9356H14.8913ZM23.7545 18.3494C23.6903 18.8196 23.5701 19.2726 23.3987 19.6904C23.2318 20.0942 23.0137 20.4663 22.7442 20.8035C22.4395 21.1981 22.0741 21.4961 21.6743 21.6759C21.2823 21.8469 20.7818 21.9356 20.174 21.9356H18.7973L18.4158 24.5988H16.8082L18.2432 14.5826H21.3337C22.2635 14.5826 22.9413 14.9135 23.3683 15.5769C23.7953 16.2372 23.9248 17.1619 23.7545 18.3494ZM20.727 16.1612H19.6268L19.0248 20.3539H20.0025C20.6523 20.3539 21.1353 20.1876 21.4515 19.8567C21.7688 19.5242 21.9823 18.9716 22.0943 18.1958C22.2017 17.4516 22.1515 16.9259 21.9485 16.6204C21.7455 16.3148 21.3372 16.1612 20.727 16.1612Z" fill="white"/>
</svg>
